<svg width="256" height="256" viewBox="0 0 256 256" fill="none" xmlns="http://www.w3.org/2000/svg">
<g clip-path="url(#clip0_7_3)">
<path d="M230.4 0H25.6C11.4615 0 0 11.4615 0 25.6V230.4C0 244.538 11.4615 256 25.6 256H230.4C244.538 256 256 244.538 256 230.4V25.6C256 11.4615 244.538 0 230.4 0Z" fill="#0075FF"/>
<path d="M132.882 208.315C130.788 212.162 125.212 212.162 123.118 208.315L96.6822 159.758C94.9126 156.507 94.9126 152.593 96.6822 149.342L123.594 99.9117C125.585 96.2541 122.909 91.8182 118.711 91.8182H66.3168C62.2378 91.8182 58.4878 89.6019 56.5528 86.0474L45.4715 65.6934C43.4804 62.0361 46.1564 57.6 50.3536 57.6H205.646C209.844 57.6 212.52 62.0362 210.529 65.6934L199.447 86.0474C197.512 89.6019 193.762 91.8182 189.683 91.8182H137.288C133.091 91.8182 130.415 96.2541 132.406 99.9117L159.318 149.342C161.087 152.593 161.087 156.507 159.318 159.758L132.882 208.315Z" fill="white"/>
</g>
<defs>
<clipPath id="clip0_7_3">
<rect width="256" height="256" fill="white"/>
</clipPath>
</defs>
</svg>
