<svg width="40" height="40" viewBox="0 0 40 40" fill="none" xmlns="http://www.w3.org/2000/svg">
<rect width="40" height="40" rx="4" fill="#0075FF"/>
<path d="M20.7628 32.5492C20.4356 33.1503 19.5644 33.1503 19.2372 32.5492L15.1066 24.9622C14.8301 24.4542 14.8301 23.8426 15.1066 23.3347L19.3115 15.6112C19.6226 15.0397 19.2045 14.3466 18.5486 14.3466L10.362 14.3466C9.72466 14.3466 9.13872 14.0003 8.83637 13.4449L7.10492 10.2646C6.79381 9.69314 7.21194 9 7.86775 9L32.1322 9C32.7881 9 33.2062 9.69315 32.8951 10.2646L31.1636 13.4449C30.8613 14.0003 30.2753 14.3466 29.638 14.3466L21.4513 14.3466C20.7955 14.3466 20.3774 15.0397 20.6885 15.6112L24.8934 23.3347C25.1699 23.8427 25.1699 24.4542 24.8934 24.9622L20.7628 32.5492Z" fill="white"/>
</svg>
