<svg width="8" height="8" viewBox="0 0 8 8" fill="none" xmlns="http://www.w3.org/2000/svg">
<path d="M0 0H1V1H0V0Z" fill="#86D562"/>
<path d="M1 0H2V1H1V0Z" fill="#52A535"/>
<path d="M2 0H3V1H2V0Z" fill="#6CC349"/>
<path d="M3 0H4V1H3V0Z" fill="#86D562"/>
<path d="M4 0H5V1H4V0Z" fill="#6CC349"/>
<path d="M5 0H6V1H5V0Z" fill="#52A535"/>
<path d="M6 0H7V1H6V0Z" fill="#6CC349"/>
<path d="M7 0H8V1H7V0Z" fill="#52A535"/>
<path d="M0 1H1V2H0V1Z" fill="#52A535"/>
<path d="M1 1H2V2H1V1Z" fill="#66412C"/>
<path d="M2 1H3V2H2V1Z" fill="#50A234"/>
<path d="M3 1H4V2H3V1Z" fill="#3C8527"/>
<path d="M4 1H5V2H4V1Z" fill="#52A535"/>
<path d="M5 1H6V2H5V1Z" fill="#6CC349"/>
<path d="M6 1H7V2H6V1Z" fill="#66412C"/>
<path d="M7 1H8V2H7V1Z" fill="#6AC148"/>
<path d="M0 2H1V3H0V2Z" fill="#66412C"/>
<path d="M1 2H2V3H1V2Z" fill="#988E8A"/>
<path d="M2 2H3V3H2V2Z" fill="#66412C"/>
<path d="M3 2H4V3H3V2Z" fill="#66412C"/>
<path d="M4 2H5V3H4V2Z" fill="#6CC349"/>
<path d="M5 2H6V3H5V2Z" fill="#66412C"/>
<path d="M6 2H7V3H6V2Z" fill="#805539"/>
<path d="M7 2H8V3H7V2Z" fill="#52A535"/>
<path d="M0 3H1V4H0V3Z" fill="#976746"/>
<path d="M1 3H2V4H1V3Z" fill="#805539"/>
<path d="M2 3H3V4H2V3Z" fill="#976746"/>
<path d="M3 3H4V4H3V3Z" fill="#AD7A54"/>
<path d="M4 3H5V4H4V3Z" fill="#66412C"/>
<path d="M5 3H6V4H5V3Z" fill="#805539"/>
<path d="M6 3H7V4H6V3Z" fill="#976746"/>
<path d="M7 3H8V4H7V3Z" fill="#66412C"/>
<path d="M0 4H1V5H0V4Z" fill="#805539"/>
<path d="M1 4H2V5H1V4Z" fill="#66412C"/>
<path d="M2 4H3V5H2V4Z" fill="#66412C"/>
<path d="M3 4H4V5H3V4Z" fill="#976746"/>
<path d="M4 4H5V5H4V4Z" fill="#805539"/>
<path d="M5 4H6V5H5V4Z" fill="#AD7A54"/>
<path d="M6 4H7V5H6V4Z" fill="#66412C"/>
<path d="M7 4H8V5H7V4Z" fill="#66412C"/>
<path d="M0 5H1V6H0V5Z" fill="#AD7A54"/>
<path d="M1 5H2V6H1V5Z" fill="#805539"/>
<path d="M2 5H3V6H2V5Z" fill="#66412C"/>
<path d="M3 5H4V6H3V5Z" fill="#66412C"/>
<path d="M4 5H5V6H4V5Z" fill="#998F8B"/>
<path d="M5 5H6V6H5V5Z" fill="#805539"/>
<path d="M6 5H7V6H6V5Z" fill="#976746"/>
<path d="M7 5H8V6H7V5Z" fill="#805539"/>
<path d="M0 6H1V7H0V6Z" fill="#805539"/>
<path d="M1 6H2V7H1V6Z" fill="#976746"/>
<path d="M2 6H3V7H2V6Z" fill="#66412C"/>
<path d="M3 6H4V7H3V6Z" fill="#AD7A54"/>
<path d="M4 6H5V7H4V6Z" fill="#976746"/>
<path d="M5 6H6V7H5V6Z" fill="#A67450"/>
<path d="M6 6H7V7H6V6Z" fill="#805539"/>
<path d="M7 6H8V7H7V6Z" fill="#976746"/>
<path d="M0 7H1V8H0V7Z" fill="#66412C"/>
<path d="M1 7H2V8H1V7Z" fill="#805539"/>
<path d="M2 7H3V8H2V7Z" fill="#998F8B"/>
<path d="M3 7H4V8H3V7Z" fill="#805539"/>
<path d="M4 7H5V8H4V7Z" fill="#805539"/>
<path d="M5 7H6V8H5V7Z" fill="#976746"/>
<path d="M6 7H7V8H6V7Z" fill="#704931"/>
<path d="M7 7H8V8H7V7Z" fill="#AD7A54"/>
</svg>
