<svg width="24" height="24" viewBox="0 0 24 24" fill="none" xmlns="http://www.w3.org/2000/svg">
<path d="M5 18.5C5 19.3333 5.5 21 7.5 21C9.08317 21 13.9038 21 17.0018 21C18.1064 21 19 20.1046 19 19V16M5 18.5C5 14.4126 5 6.4715 5 5C5 3.4 6.33333 3 7 3H17C18.1046 3 19 3.89543 19 5V16M5 18.5C5 18.8569 5 18.1921 5 18.5ZM5 18.5C5 16.5 6.66667 16 7.5 16H19" stroke="currentColor" stroke-width="2" stroke-linejoin="round"/>
<path d="M9 8H15" stroke="currentColor" stroke-width="2" stroke-linecap="round"/>
</svg>
