<svg width="24" height="24" viewBox="0 0 24 24" fill="none" xmlns="http://www.w3.org/2000/svg">
<path d="M7 2V5M7 5H5C3.89543 5 3 5.89543 3 7V9M7 5H12H17M17 2V5M17 5H19C20.1046 5 21 5.89543 21 7V9M3 9V19C3 20.1046 3.89543 21 5 21H19C20.1046 21 21 20.1046 21 19V9M3 9H21" stroke="currentColor" stroke-width="2" stroke-linecap="round" stroke-linejoin="round"/>
<circle cx="7" cy="13" r="1" fill="black"/>
<circle cx="12" cy="13" r="1" fill="black"/>
<circle cx="17" cy="13" r="1" fill="black"/>
<circle cx="7" cy="17" r="1" fill="black"/>
<circle cx="12" cy="17" r="1" fill="black"/>
<circle cx="17" cy="17" r="1" fill="black"/>
</svg>
