<svg width="24" height="24" viewBox="0 0 24 24" fill="none" xmlns="http://www.w3.org/2000/svg">
<path d="M19 20H5C3.89543 20 3 19.1046 3 18V16.8284C3 16.298 3.21071 15.7893 3.58579 15.4142L7.58579 11.4142C8.36683 10.6332 9.63317 10.6332 10.4142 11.4142L14 15M19 20L14 15M19 20V20C20.1046 20 21 19.1046 21 18V16.8284C21 16.298 20.7893 15.7893 20.4142 15.4142L18.4142 13.4142C17.6332 12.6332 16.3668 12.6332 15.5858 13.4142L14 15" stroke="currentColor" stroke-width="2"/>
<circle cx="14.5" cy="6.5" r="2.5" stroke="currentColor" stroke-width="2"/>
</svg>
