<svg width="24" height="24" viewBox="0 0 24 24" fill="none" xmlns="http://www.w3.org/2000/svg">
<path d="M7 21H19C20.1046 21 21 20.1046 21 19V5C21 3.89543 20.1046 3 19 3H9C7.89543 3 7 3.89543 7 5V9M7 21H6C5 21 3 20.4 3 18C3 16.223 3 13.24 3 10.9992C3 9.8946 3.89543 9 5 9H7M7 21V9" stroke="currentColor" stroke-width="2"/>
<path d="M16.95 7H11.05C11.0224 7 11 7.02239 11 7.05V8.95C11 8.97761 11.0224 9 11.05 9H16.95C16.9776 9 17 8.97761 17 8.95V7.05C17 7.02239 16.9776 7 16.95 7Z" stroke="currentColor" stroke-width="2"/>
<path d="M11 13H17" stroke="currentColor" stroke-width="2" stroke-linecap="round"/>
<path d="M11 17H17" stroke="currentColor" stroke-width="2" stroke-linecap="round"/>
</svg>
