<svg width="24" height="24" viewBox="0 0 24 24" fill="none" xmlns="http://www.w3.org/2000/svg">
<path d="M14.535 14.4177C13.5462 14.2188 12.3956 14.2526 11.6824 14.9658L6.97234 19.6759C6.24105 20.4072 5.0554 20.4072 4.32411 19.6759V19.6759C3.59283 18.9446 3.59283 17.7589 4.32411 17.0277L9.03418 12.3176C9.7474 11.6044 9.78122 10.4538 9.58225 9.465C9.32781 8.20052 9.56526 6.49007 11.2757 4.77961C12.772 3.28335 14.2682 2.91428 15.466 3.01564C16.6647 3.11708 16.8139 4.53788 15.9632 5.38852L14.586 6.76578C13.8547 7.49707 13.8547 8.68272 14.586 9.41401V9.41401C15.3173 10.1453 16.5029 10.1453 17.2342 9.41401L18.6115 8.03675C19.4621 7.1861 20.8829 7.33532 20.9844 8.53403C21.0857 9.73176 20.7167 11.228 19.2204 12.7243C17.5099 14.4347 15.7995 14.6722 14.535 14.4177Z" stroke="currentColor" stroke-width="2"/>
</svg>
