<svg width="32" height="32" viewBox="0 0 32 32" fill="none" xmlns="http://www.w3.org/2000/svg">
<rect x="16" y="2" width="2" height="2" fill="#3D2B0A"/>
<rect x="18" y="2" width="2" height="2" fill="#281C08"/>
<rect x="20" y="2" width="2" height="2" fill="#382A0A"/>
<rect x="22" y="4" width="2" height="2" fill="#2D2009"/>
<rect x="24" y="6" width="2" height="2" fill="#2A1E08"/>
<rect x="26" y="8" width="2" height="2" fill="#2A1E08"/>
<rect x="28" y="10" width="2" height="2" fill="#382A0A"/>
<rect x="30" y="12" width="2" height="2" fill="#292107"/>
<rect x="30" y="14" width="2" height="2" fill="#5B5B5B"/>
<rect x="30" y="16" width="2" height="2" fill="#5B5B5B"/>
<rect x="30" y="18" width="2" height="2" fill="#211B0D"/>
<rect x="28" y="18" width="2" height="2" fill="#38280C"/>
<rect x="28" y="20" width="2" height="2" fill="#342A08"/>
<rect x="26" y="20" width="2" height="2" fill="#38280C"/>
<rect x="24" y="20" width="2" height="2" fill="#38280C"/>
<rect x="26" y="22" width="2" height="2" fill="#1D1606"/>
<rect x="24" y="22" width="2" height="2" fill="#342A08"/>
<rect x="22" y="22" width="2" height="2" fill="#38280C"/>
<rect x="22" y="24" width="2" height="2" fill="#211806"/>
<rect x="20" y="24" width="2" height="2" fill="#AB1232"/>
<rect x="18" y="24" width="2" height="2" fill="#A72F48"/>
<rect x="18" y="26" width="2" height="2" fill="#A42C2B"/>
<rect x="16" y="26" width="2" height="2" fill="#161005"/>
<rect x="14" y="26" width="2" height="2" fill="#38280C"/>
<rect x="16" y="24" width="2" height="2" fill="#38280C"/>
<path d="M16 24H10V22H16V24ZM10 22H8V20H10V22ZM18 22H16V20H18V22ZM24 22H22V20H24V22ZM8 20H6V18H8V20ZM26 20H24V18H26V20ZM6 18H4V16H6V18ZM28 18H26V16H28V18ZM4 16H2V14H4V16ZM30 16H28V14H30V16Z" fill="#B8B7B1"/>
<rect x="14" y="28" width="2" height="2" fill="#2D2107"/>
<rect x="12" y="28" width="2" height="2" fill="#1D1606"/>
<rect x="10" y="28" width="2" height="2" fill="#1D1606"/>
<rect x="10" y="26" width="2" height="2" fill="#3B2A0D"/>
<rect x="12" y="26" width="2" height="2" fill="#3B2A0D"/>
<rect x="8" y="26" width="2" height="2" fill="#392B09"/>
<rect x="8" y="24" width="2" height="2" fill="#4D3811"/>
<rect x="6" y="24" width="2" height="2" fill="#302608"/>
<rect x="6" y="22" width="2" height="2" fill="#523D13"/>
<rect x="4" y="22" width="2" height="2" fill="#1D1606"/>
<rect x="4" y="20" width="2" height="2" fill="#543E13"/>
<rect x="2" y="20" width="2" height="2" fill="#161005"/>
<rect x="2" y="18" width="2" height="2" fill="#543E12"/>
<rect y="18" width="2" height="2" fill="#43360A"/>
<rect y="16" width="2" height="2" fill="#2D2009"/>
<rect y="14" width="2" height="2" fill="#36270A"/>
<rect y="12" width="2" height="2" fill="#302209"/>
<rect y="10" width="2" height="2" fill="#2E2209"/>
<rect x="2" y="10" width="2" height="2" fill="#48350C"/>
<rect x="4" y="8" width="2" height="2" fill="#3D2F0A"/>
<rect x="6" y="8" width="2" height="2" fill="#2A1E08"/>
<rect x="8" y="6" width="4" height="2" fill="#D5253E"/>
<rect x="8" y="8" width="2" height="2" fill="#AB413E"/>
<rect x="10" y="8" width="2" height="2" fill="#A72F48"/>
<rect x="12" y="8" width="2" height="2" fill="#AA1736"/>
<rect x="10" y="10" width="2" height="2" fill="#D81A42"/>
<rect x="12" y="10" width="2" height="2" fill="#AA1736"/>
<rect x="14" y="10" width="2" height="2" fill="#D81A42"/>
<rect x="12" y="12" width="2" height="2" fill="#AA1736"/>
<rect x="14" y="12" width="2" height="2" fill="#AA1736"/>
<rect x="16" y="12" width="2" height="2" fill="#A72F48"/>
<rect x="14" y="14" width="2" height="2" fill="#A72F48"/>
<rect x="16" y="14" width="2" height="2" fill="#A72F48"/>
<rect x="18" y="14" width="2" height="2" fill="#D81A42"/>
<rect x="16" y="16" width="2" height="2" fill="#D81A42"/>
<rect x="18" y="16" width="2" height="2" fill="#D19C19"/>
<rect x="20" y="16" width="2" height="2" fill="#CF981A"/>
<rect x="18" y="18" width="2" height="2" fill="#D3A216"/>
<rect x="20" y="18" width="2" height="2" fill="#D4961A"/>
<rect x="18" y="20" width="2" height="2" fill="#D61A42"/>
<rect x="20" y="20" width="2" height="2" fill="#A92E48"/>
<rect x="18" y="22" width="2" height="2" fill="#AB1232"/>
<rect x="20" y="22" width="2" height="2" fill="#D61A42"/>
<rect x="12" y="4" width="2" height="2" fill="#281C08"/>
<rect x="14" y="4" width="2" height="2" fill="#3D2C0A"/>
<path d="M10 12H12V14H14V16H16V20H10V18H12V16H10V14H8V16H6V14H2V12H4V10H10V12ZM10 18H8V16H10V18ZM24 16H22V14H24V16ZM22 14H18V12H22V14ZM28 14H24V12H26V10H28V14ZM18 12H16V10H18V12ZM26 10H24V12H22V10H20V6H18V8H16V10H14V8H12V6H16V4H22V6H24V8H26V10Z" fill="#654B17"/>
<path d="M12 18H10V16H12V18ZM10 16H8V14H10V16ZM22 16H20V14H22V16ZM24 14H22V12H24V14ZM20 10H22V12H18V10H16V8H18V6H20V10ZM26 12H24V10H26V12Z" fill="#443310"/>
<rect x="4" y="14" width="2" height="2" fill="#543E13"/>
<rect x="6" y="16" width="2" height="2" fill="#543E13"/>
<rect x="8" y="18" width="2" height="2" fill="#543E13"/>
<rect x="10" y="20" width="2" height="2" fill="#543E13"/>
<rect x="12" y="20" width="4" height="2" fill="#38280C"/>
<rect x="16" y="18" width="2" height="2" fill="#38280C"/>
<rect x="22" y="16" width="2" height="2" fill="#38280C"/>
<rect x="24" y="14" width="4" height="2" fill="#38280C"/>
<rect x="28" y="12" width="2" height="2" fill="#38280C"/>
<rect x="2" y="16" width="2" height="2" fill="#D6D6D6"/>
<rect x="4" y="18" width="2" height="2" fill="#D6D6D6"/>
<rect x="6" y="20" width="2" height="2" fill="#D6D6D6"/>
<rect x="8" y="22" width="2" height="2" fill="#D6D6D6"/>
<rect x="10" y="24" width="2" height="2" fill="#D6D6D6"/>
<rect x="12" y="24" width="4" height="2" fill="#999999"/>
<rect x="16" y="22" width="2" height="2" fill="#999999"/>
<rect x="22" y="18" width="2" height="2" fill="#999999"/>
<rect x="24" y="16" width="2" height="2" fill="#999999"/>
<rect x="26" y="18" width="2" height="2" fill="#999999"/>
<rect x="28" y="16" width="2" height="2" fill="#999999"/>
<path d="M22 4H24V6H26V8H28V10H30V12H32V20H30V22H28V24H24V26H20V28H16V30H10V28H8V26H6V24H4V22H2V20H0V10H4V8H8V6H12V4H16V2H22V4Z" fill="url(#paint0_linear_30_270)"/>
<path d="M22 4H24V6H26V8H28V10H30V12H32V20H30V22H28V24H24V26H20V28H16V30H10V28H8V26H6V24H4V22H2V20H0V10H4V8H8V6H12V4H16V2H22V4Z" fill="url(#paint1_linear_30_270)"/>
<defs>
<linearGradient id="paint0_linear_30_270" x1="6" y1="2" x2="27" y2="33" gradientUnits="userSpaceOnUse">
<stop offset="0.0890044" stop-color="#9000FF" stop-opacity="0"/>
<stop offset="0.464739" stop-color="#9000FF" stop-opacity="0.44"/>
<stop offset="0.839567" stop-color="#9100FF" stop-opacity="0"/>
</linearGradient>
<linearGradient id="paint1_linear_30_270" x1="16" y1="-6" x2="-9" y2="31.5" gradientUnits="userSpaceOnUse">
<stop offset="0.321116" stop-color="#9000FF" stop-opacity="0.0328773"/>
<stop offset="0.464739" stop-color="#9000FF" stop-opacity="0.22"/>
<stop offset="0.610358" stop-color="#9100FF" stop-opacity="0"/>
</linearGradient>
</defs>
</svg>
